<svg id="Group_44" data-name="Group 44" xmlns="http://www.w3.org/2000/svg" xmlns:xlink="http://www.w3.org/1999/xlink" width="180" height="122.454" viewBox="0 0 180 122.454">
  <defs>
    <clipPath id="clip-path">
      <rect id="Rectangle_46" data-name="Rectangle 46" width="180" height="122.454" fill="none"/>
    </clipPath>
    <clipPath id="clip-path-2">
      <path id="Path_178" data-name="Path 178" d="M117.4,0C75.276,0,41.131,6.653,41.131,34.406s34.145,50.25,76.264,50.25,76.264-22.5,76.264-50.25S159.515,0,117.4,0Z" transform="translate(-41.131)" fill="none"/>
    </clipPath>
  </defs>
  <g id="Group_39" data-name="Group 39">
    <g id="Group_38" data-name="Group 38" clip-path="url(#clip-path)">
      <path id="Path_164" data-name="Path 164" d="M138.088,34.574A22.264,22.264,0,1,1,115.824,12.31a22.264,22.264,0,0,1,22.264,22.264" transform="translate(-61.333 -8.07)" fill="#fa682a"/>
    </g>
  </g>
  <g id="Group_41" data-name="Group 41" transform="translate(14.168)">
    <g id="Group_40" data-name="Group 40" clip-path="url(#clip-path-2)">
      <path id="Path_165" data-name="Path 165" d="M193.157,85.988c-1.086-1.649-2.156-3.307-3.194-4.995-1.052-1.71-2.093-3.427-3.141-5.139l-.3-.491c-.178-.227-.354-.456-.534-.68q-.781-.969-1.583-1.916c-.532-.63-1.075-1.241-1.577-1.9-.97-1.277-1.848-2.64-2.728-4q-.285-.44-.573-.876l-.474-.61a143.787,143.787,0,0,0-13.572-15.843c-2.412-2.324-4.891-4.579-7.11-7.149-2.25-2.605-4.13-5.578-6.257-8.308-1.083-1.39-2.28-2.648-3.391-4.007-1.079-1.319-2.1-2.7-3.161-4.036a62.445,62.445,0,0,0-5.123-5.558c-1.317-1.3-3.242-3.53-5.1-2.283-1.7,1.142-2.341,3.378-3.34,5.22-1.3-1.587-1.811-3.752-2.882-5.561-1.27-2.145-3.281-3.52-4.568-5.661-.65-1.082-1.19-2.247-1.869-3.307a21.089,21.089,0,0,0-2.423-2.945c-.974-1.046-1.952-2.074-2.868-3.188a6.326,6.326,0,0,0-2.179-2c-1.452-.6-2.614.612-3.445,1.831-1.487,2.181-2.952,4.375-4.477,6.525-1.7,2.4-3.416,4.8-5.09,7.233a54.1,54.1,0,0,0-4.676,7.242c-.5,1.059-.832,2.2-1.23,3.31A9.253,9.253,0,0,1,94,30.431c-1.908,1.936-3.846,3.82-5.643,5.894-.607.7-1.154,1.453-1.732,2.183-.591.747-1.255,1.795-2.187,1.176-1.4-.927-2.19-2.836-4.05-2.53a3.9,3.9,0,0,0-2.176,1.387,22.59,22.59,0,0,1-2.5,2.648c-1.962,1.572-4.008,2.836-5.555,4.985-1.487,2.067-2.632,4.409-4.166,6.438a55.267,55.267,0,0,1-4.906,5.531C57.308,61.96,52.942,65.512,50.038,70.3c-1.516,2.5-2.5,5.35-3.893,7.935-.515.958-1.089,1.885-1.635,2.83-1.573,1.559-2.484,3.946-3.379,6.14H193.594a4.249,4.249,0,0,0,.066-.45l-.5-.765" transform="translate(-41.131 -0.391)" fill="#303030"/>
      <path id="Path_166" data-name="Path 166" d="M201.79,152.09c-3.639-3.6-7.43-6.994-11-10.684-3.987-4.12-7.873-8.36-11.922-12.4-3.7-3.7-6.8-8.115-10.586-11.709-.821-.78-1.7-1.472-2.458-2.334s-1.425-1.784-2.1-2.712c-.658-.9-1.311-1.817-2.026-2.664l-.034-.039a.966.966,0,0,1-.636-.183c-1.123-.745-1.857-2.124-3.068-2.477a13.369,13.369,0,0,1,1.662,2.72,9.792,9.792,0,0,0,1.33,2.086,39.479,39.479,0,0,1,2.514,3.126c1.593,2.147,3.065,4.4,4.631,6.574.732,1.015,1.476,2.034,2.288,2.969.8.917,1.658,1.758,2.512,2.6,1.625,1.61,3.421,3.275,4.306,5.576.4,1.047.631,2.164.993,3.229a8.481,8.481,0,0,0,.736,1.627,10.078,10.078,0,0,0,1.252,1.572,126.865,126.865,0,0,1,9.666,12.627c1.233,1.767,2.465,3.538,3.72,5.287h12.821c-1.487-1.659-3.039-3.243-4.6-4.79" transform="translate(-117.718 -70.068)" fill="#1e1e1e"/>
      <path id="Path_167" data-name="Path 167" d="M366.365,118.787c-1.086-1.649-2.156-3.307-3.194-4.995-1.052-1.71-2.093-3.427-3.141-5.139l-.3-.491c-.178-.227-.354-.456-.534-.68q-.781-.969-1.583-1.916c-.532-.63-1.075-1.241-1.577-1.9-.97-1.277-1.848-2.64-2.728-4q-.285-.44-.573-.876-.238-.3-.474-.61a143.79,143.79,0,0,0-13.572-15.843c-2.412-2.324-4.891-4.579-7.11-7.149-2.25-2.605-4.13-5.578-6.257-8.308-1.083-1.39-2.28-2.648-3.391-4.007-1.079-1.319-2.1-2.7-3.161-4.036a62.5,62.5,0,0,0-5.123-5.558c-1.317-1.3-3.242-3.53-5.1-2.283-1.618,1.086-2.276,3.16-3.2,4.944q.879,2,1.8,3.969c2.693,4.816,5.146,9.814,8.18,14.37a32.589,32.589,0,0,0,2.731,3.628c.959,1.078,1.985,2.074,3.021,3.054,1.082,1.024,2.177,2.031,3.233,3.09a42.67,42.67,0,0,1,3.026,3.423c2.027,2.521,3.934,5.162,5.861,7.783,1.948,2.649,3.949,5.226,6.032,7.737s4.049,5.139,5.99,7.79c.966,1.319,1.924,2.644,2.888,3.964.735,1.007,1.449,2.04,2.252,2.978.65.758,1.31,1.508,1.952,2.274H366.8a4.242,4.242,0,0,0,.066-.45l-.5-.765" transform="translate(-214.338 -33.19)" fill="#1e1e1e"/>
      <path id="Path_168" data-name="Path 168" d="M111.234,147.707q.738.718,1.493,1.414c1.473,1.354,2.985,2.656,4.47,3.993a11.378,11.378,0,0,0-1.854-2.614c-.428-.506-.884-.979-1.344-1.448-1.041-2.232-3.042-3.6-3.853-6.045a18.245,18.245,0,0,1-.817-3.751,8.333,8.333,0,0,0-.29-1.742,16.217,16.217,0,0,1-2.164-1.712,52.887,52.887,0,0,1-4.338-4.855q-2.419-2.931-4.713-5.992T93.372,118.7q-1.365-2.019-2.667-4.093c-.877.7-1.77,1.372-2.665,2.042-.511.382-1.022.765-1.531,1.153-.526.4-1.02.84-1.514,1.291-1.468,1.34-2.92,2.725-4.47,3.945a27.728,27.728,0,0,1-.776,2.831,16.562,16.562,0,0,1-2.252,4.462,25.219,25.219,0,0,1-4.14,4.107c-1.755,1.517-3.534,3-5.319,4.466q-1.182.973-2.366,1.942a6.075,6.075,0,0,0-.611.839c-.349.992-.7,1.985-1.056,2.972-.649,1.784-1.332,3.553-2.12,5.263-.8,1.728-1.744,3.35-2.688,4.976-.713,1.228-1.434,2.452-2.148,3.68a.347.347,0,0,0,.3-.026c3.774-2.215,8.306-.43,12.234-2.1.213-.09.525-.5.33-.773-1.116-1.561-2.925-1.621-4.5-2.223a9.067,9.067,0,0,0,2.223-1.513,3.155,3.155,0,0,0,.653-2.377,7.8,7.8,0,0,1,.118-3.66,11.3,11.3,0,0,1,2.253-3.529c1.871-2.169,4.038-3.013,6.557-3.781,1.446-.441,3.554-.364,4.462-1.944.939-1.633.692-3.958.851-5.809a6.046,6.046,0,0,1,.332-2.26c.386-.658,1.445-.868,2.045-1.1a10.182,10.182,0,0,0,4.91-3.332,9.078,9.078,0,0,0,1.163-2.3c.033-.1.082-.205.133-.319.313.414.648.812.979,1.22,1,1.233,2,2.441,3.043,3.631,2.2,2.52,4.087,5.375,6.168,8.018a11.545,11.545,0,0,0,2.714,2.314,7.123,7.123,0,0,1,2.561,2.874c.716,1.436,1.564,2.8,2.254,4.241a16.461,16.461,0,0,0,2.088,3.528c.1.121.2.237.307.355" transform="translate(-51.566 -75.131)" fill="#fff"/>
      <path id="Path_169" data-name="Path 169" d="M229.69,48.9c-.944-1.923-1.879-3.852-2.863-5.749-.961-1.855-1.994-3.655-3.04-5.448-1.191-2.041-2.386-4.085-3.491-6.189a.888.888,0,0,0-.653.309,11.9,11.9,0,0,0-1.39-1.533c-.551-.5-1.227-.8-1.759-1.328a3.823,3.823,0,0,1-.89-2.5,6.447,6.447,0,0,0-1.474-3.927,25.29,25.29,0,0,0-3.774-4.235,9.658,9.658,0,0,1-2.2-1.532,9.832,9.832,0,0,1-1.209-2.132,20.943,20.943,0,0,0-2.254-4.432c-.253-.319-.828-.071-.9.339a6.821,6.821,0,0,1-.291,1.067c.039-1.031.053-2.064.034-3.1-.014-.779-.9-.464-1.143-.024-.377.7-.734,1.4-1.084,2.117-1.26,2.046-2.864,3.832-4.277,5.724-.909,1.216-1.6,2.611-2.513,3.819-.961,1.275-2.068,2.4-2.98,3.722A12.074,12.074,0,0,0,189.41,27.6c-.39,1.617.43,3.113-.525,4.591a34.8,34.8,0,0,1-2.906,3.493c-1.193,1.405-2.372,2.829-3.581,4.217-2,2.3-4.464,4.137-5.7,7.155a.367.367,0,0,0,.077.441c1.1-.655,2.206-1.317,3.3-2,3.147-1.958,6.243-4.028,9.231-6.288q.951-.719,1.887-1.468.489-1.558,1.1-3.063a42.137,42.137,0,0,1,1.806-3.922,17.812,17.812,0,0,1,2.124-3.294c1.71-2.008,3.805-3.518,5.592-5.43a.121.121,0,0,1,.2.03c.335.9.629,1.81.89,2.737.536,1.9.943,3.844,1.339,5.789a.915.915,0,0,0,.773-.594c.536-2.085.6-4.391,1.285-6.429a14.145,14.145,0,0,0,1.9,2.269c.742.721,2,1.292,2.409,2.359a6.908,6.908,0,0,1-.129,3.378,10.976,10.976,0,0,0-.25,3.413,16.263,16.263,0,0,1,1.844-.969A8.6,8.6,0,0,1,213.6,33.5a3.64,3.64,0,0,1,1.433-.064,3.154,3.154,0,0,1,1.178.414,5.008,5.008,0,0,1,.993.881c.455.492.906.99,1.36,1.483q.74.8,1.449,1.645c1.911,2.262,3.67,4.686,5.383,7.144,1.6,2.294,3.438,4.359,5.214,6.473.317.377.631.758.945,1.14-.634-1.228-1.252-2.467-1.862-3.71" transform="translate(-129.975 -5.272)" fill="#fff"/>
      <path id="Path_170" data-name="Path 170" d="M316.935,67.5c.663-1.753.986-3.676,1.652-5.429.043-.113.171-.076.221,0a41.743,41.743,0,0,0,3.083,3.948c.962,1.121,1.942,2.221,2.879,3.368.45.551.89,1.114,1.311,1.694a10.5,10.5,0,0,1,1.156,1.83c.91,2.031.71,4.375,1.116,6.545.29.518.57,1.043.848,1.57.133-.074.265-.152.394-.236.491-.321,1.058-1.032,1.644-.585a7.9,7.9,0,0,1,1.158,1.276q.854,1.03,1.687,2.082c1.17,1.467,2.334,2.943,3.578,4.331a35.383,35.383,0,0,0,3.876,3.656c2.63,2.176,5.359,4.187,8.072,6.224,2.7,2.024,5.379,4.079,7.927,6.342.156.139.31.281.466.422-.427-.462-.874-.906-1.306-1.362a64.37,64.37,0,0,1-3.986-5.464c-1.294-1.7-2.734-3.276-4.1-4.894a45.529,45.529,0,0,0-4.279-4.565c-1.429-1.28-3.131-2.18-4.459-3.6-1.438-1.537-2.5-3.507-3.828-5.169-2.8-3.518-5.993-6.573-8.589-10.315a35.865,35.865,0,0,0-4.154-5.345,56.707,56.707,0,0,1-4.89-5.024.567.567,0,0,0-.7-.136,76.086,76.086,0,0,0-1.132,8.611.268.268,0,0,0,.229.1.823.823,0,0,0,.127.13" transform="translate(-221.7 -38.417)" fill="#fff"/>
      <path id="Path_171" data-name="Path 171" d="M364.666,182.74c-1.193-2.875-3.419-5.183-5.131-7.653-1.787-2.578-3.518-5.192-5.394-7.688-1.843-2.453-3.607-4.978-5.452-7.429-1.777-2.362-3.282-4.952-5.148-7.23-.073-.089-.25.043-.185.148,1.541,2.471,2.738,5.213,4.411,7.582,1.808,2.561,3.62,5.133,5.49,7.635,1.831,2.45,3.611,4.95,5.438,7.405,1.851,2.487,3.631,5.184,5.668,7.473.13.145.382-.053.3-.242" transform="translate(-239.245 -100.109)" fill="#fff"/>
      <path id="Path_172" data-name="Path 172" d="M368.646,199.749a43.241,43.241,0,0,0-4.941-7.962c-1.843-2.506-3.755-4.936-5.649-7.39-.135-.175-.466.08-.348.278,1.609,2.7,3.43,5.192,5.243,7.715s3.542,5.11,5.318,7.661c.143.205.477-.077.378-.3" transform="translate(-248.645 -120.843)" fill="#fff"/>
      <path id="Path_173" data-name="Path 173" d="M366.848,207.182a14.4,14.4,0,0,0-1.84-2.6c-.653-.847-1.355-1.637-2.031-2.46-.156-.189-.531.092-.392.313,1.092,1.747,2.074,4.108,3.688,5.309.278.207.735-.218.575-.563" transform="translate(-251.839 -132.46)" fill="#fff"/>
      <path id="Path_174" data-name="Path 174" d="M363.374,209.974a10.232,10.232,0,0,0-1.364-1.877c-.134-.184-.481.088-.355.284.421.658.723,1.4,1.194,2.013.21.273.664-.1.525-.42" transform="translate(-251.232 -136.377)" fill="#fff"/>
      <path id="Path_175" data-name="Path 175" d="M447.96,212.084c-1.261-2.98-3.59-5.409-5.61-7.728-2.079-2.387-4.2-4.733-6.16-7.247-.208-.266-.708.117-.533.426a42.9,42.9,0,0,0,5.664,7.345c2.175,2.431,4.083,5.048,6.105,7.63.216.276.67-.1.533-.426" transform="translate(-299.738 -129.155)" fill="#fff"/>
      <path id="Path_176" data-name="Path 176" d="M444.575,217.822a28.213,28.213,0,0,0-3.041-3.834c-.971-1.2-2-2.312-3.035-3.435-.15-.162-.477.177-.307.367a49.055,49.055,0,0,1,3.006,4.038,12.469,12.469,0,0,0,2.9,3.329c.22.138.634-.172.474-.464" transform="translate(-301.392 -137.999)" fill="#fff"/>
      <path id="Path_177" data-name="Path 177" d="M439.932,221.728c-.084-.843-.97-1.4-1.489-1.9-.154-.15-.524.186-.372.364a13.974,13.974,0,0,1,1.3,1.9c.183.3.587-.085.559-.359" transform="translate(-301.32 -144.081)" fill="#fff"/>
    </g>
  </g>
  <g id="Group_43" data-name="Group 43">
    <g id="Group_42" data-name="Group 42" clip-path="url(#clip-path)">
      <path id="Path_179" data-name="Path 179" d="M2.284,191.579c-.92-.753-1.377-1.135-2.284-1.91l7.778-9.108c2.9,2.478,4.389,3.654,7.423,5.881l-1.417,1.933c-2.207-1.62-3.3-2.462-5.435-4.213l-1.517,1.856c1.307,1.069,1.967,1.592,3.3,2.613l-1.458,1.9c-1.356-1.04-2.028-1.572-3.359-2.661l-3.03,3.7" transform="translate(0 -118.367)" fill="#fa682a"/>
      <path id="Path_180" data-name="Path 180" d="M34.709,218.591c-.993-.6-1.487-.908-2.469-1.532l1.284-2.024c-1.932-1.227-2.888-1.862-4.779-3.178l-1.368,1.969c-.959-.667-1.435-1.006-2.383-1.7l4.222-5.812a4.2,4.2,0,0,1,1.446-1.258,5.077,5.077,0,0,1,1.833-.562,5.743,5.743,0,0,1,1.99.137,6.231,6.231,0,0,1,3.471,2.309,5.735,5.735,0,0,1,.891,1.779,5.036,5.036,0,0,1,.186,1.906,4.237,4.237,0,0,1-.6,1.818l-3.72,6.146m.095-5.575,1.284-2.025a2.1,2.1,0,0,0,.317-.9,2.469,2.469,0,0,0-.082-.96,2.871,2.871,0,0,0-.45-.9,3.142,3.142,0,0,0-1.762-1.171,2.867,2.867,0,0,0-1.009-.066,2.474,2.474,0,0,0-.919.295,2.088,2.088,0,0,0-.709.642l-1.367,1.969c1.858,1.292,2.8,1.917,4.7,3.122" transform="translate(-16.385 -134.036)" fill="#fa682a"/>
      <path id="Path_181" data-name="Path 181" d="M70.158,231.082a3,3,0,0,1-.9,1.113,3.606,3.606,0,0,1-1.32.626,4.344,4.344,0,0,1-1.561.088,4.688,4.688,0,0,1-1.618-.506c-2.553-1.322-3.817-2.018-6.315-3.481l6.048-10.34c2.282,1.337,3.438,1.973,5.771,3.182a4.266,4.266,0,0,1,2.015,2.2,3.774,3.774,0,0,1,.271,1.4,3.171,3.171,0,0,1-.317,1.4,2.411,2.411,0,0,1-.39.574,3.051,3.051,0,0,1-.557.482,2.879,2.879,0,0,1-.67.334,2.492,2.492,0,0,1-.727.137,2.146,2.146,0,0,1,.353.652,3.117,3.117,0,0,1,.155.739,2.943,2.943,0,0,1-.03.742,2.513,2.513,0,0,1-.206.665m-5.709-7c1.434.8,2.155,1.188,3.607,1.94a1.5,1.5,0,0,0,.515.162,1.351,1.351,0,0,0,.5-.031,1.164,1.164,0,0,0,.431-.213,1.117,1.117,0,0,0,.424-.838,1.194,1.194,0,0,0-.083-.468,1.363,1.363,0,0,0-.263-.42,1.487,1.487,0,0,0-.422-.321c-1.426-.738-2.135-1.119-3.542-1.9l-1.167,2.094m-2.33,4.181c1.485.829,2.233,1.231,3.738,2.01a1.607,1.607,0,0,0,.532.171,1.42,1.42,0,0,0,.514-.024,1.181,1.181,0,0,0,.438-.2,1.031,1.031,0,0,0,.307-.369,1.043,1.043,0,0,0,.115-.466,1.2,1.2,0,0,0-.092-.473,1.443,1.443,0,0,0-.277-.428,1.59,1.59,0,0,0-.44-.33c-1.478-.766-2.213-1.161-3.673-1.975l-1.163,2.087" transform="translate(-38.31 -143.29)" fill="#fa682a"/>
      <path id="Path_182" data-name="Path 182" d="M107.423,245.467a4.094,4.094,0,0,1-1.055,1.6,4.668,4.668,0,0,1-1.66,1,5.641,5.641,0,0,1-2.048.3,6.43,6.43,0,0,1-4.091-1.7A5.631,5.631,0,0,1,97.337,245a4.707,4.707,0,0,1-.464-1.882,4.063,4.063,0,0,1,.389-1.878l3.03-6.523c.946.44,1.421.655,2.374,1.074-1.158,2.633-1.737,3.95-2.9,6.583a2.035,2.035,0,0,0-.174.936,2.408,2.408,0,0,0,.244.936,2.814,2.814,0,0,0,.617.824,3.166,3.166,0,0,0,2.008.835,2.811,2.811,0,0,0,1.017-.144,2.4,2.4,0,0,0,.834-.488,2.035,2.035,0,0,0,.54-.784l2.624-6.7c.969.38,1.455.564,2.43.923l-2.487,6.749" transform="translate(-63.503 -153.869)" fill="#fa682a"/>
      <path id="Path_183" data-name="Path 183" d="M137.779,262.43c-3.179-.856-6.354-1.846-9.456-2.95q1.989-5.649,3.977-11.3c.979.344,1.47.511,2.455.835-1.2,3.641-1.8,5.461-3,9.1,2.645.869,3.976,1.27,6.653,2l-.633,2.312" transform="translate(-84.122 -162.694)" fill="#fa682a"/>
      <path id="Path_184" data-name="Path 184" d="M173.069,267.109a5.33,5.33,0,0,1-.516,1.578,5.728,5.728,0,0,1-.949,1.339,6.069,6.069,0,0,1-1.322,1.043,6.926,6.926,0,0,1-1.614.689,7.433,7.433,0,0,1-1.822.278,8.078,8.078,0,0,1-3.776-.827,7.572,7.572,0,0,1-1.541-1.015,6.865,6.865,0,0,1-1.185-1.3,6.184,6.184,0,0,1-.771-1.5,5.637,5.637,0,0,1-.309-1.615,5.326,5.326,0,0,1,.191-1.649,5.558,5.558,0,0,1,.674-1.522,6.031,6.031,0,0,1,1.056-1.246,6.761,6.761,0,0,1,1.35-.941,7.006,7.006,0,0,1,1.561-.605,7.553,7.553,0,0,1,1.7-.233,7.491,7.491,0,0,1,4.892,1.675,7.056,7.056,0,0,1,1.157,1.2,6.618,6.618,0,0,1,.824,1.417,6.12,6.12,0,0,1,.429,1.572,5.576,5.576,0,0,1-.026,1.664m-2.635-.462a3.405,3.405,0,0,0-.058-1.519,3.952,3.952,0,0,0-.657-1.359,4.432,4.432,0,0,0-1.144-1.06,4.611,4.611,0,0,0-4.664-.212,3.932,3.932,0,0,0-1.173.958,3.41,3.41,0,0,0-.69,1.355,3.249,3.249,0,0,0-.03,1.513,3.806,3.806,0,0,0,.62,1.4,4.4,4.4,0,0,0,1.168,1.119,4.88,4.88,0,0,0,3.35.734,4.327,4.327,0,0,0,1.528-.528,3.832,3.832,0,0,0,1.141-1.01,3.252,3.252,0,0,0,.606-1.386" transform="translate(-104.402 -170.165)" fill="#fa682a"/>
      <path id="Path_185" data-name="Path 185" d="M213.024,273.024a4.134,4.134,0,0,1-.568,1.829,4.661,4.661,0,0,1-1.3,1.419,5.562,5.562,0,0,1-1.861.856,6.252,6.252,0,0,1-4.334-.5,5.5,5.5,0,0,1-1.614-1.254,4.682,4.682,0,0,1-.946-1.676,4.125,4.125,0,0,1-.138-1.91l1.108-7.106c1.012.157,1.519.231,2.533.368-.386,2.851-.579,4.276-.965,7.127a2.057,2.057,0,0,0,.088.947,2.4,2.4,0,0,0,.483.83,2.76,2.76,0,0,0,.806.619,3.081,3.081,0,0,0,2.128.244,2.759,2.759,0,0,0,.926-.421,2.392,2.392,0,0,0,.658-.7,2.06,2.06,0,0,0,.3-.9c.271-2.864.406-4.3.677-7.159,1.022.1,1.533.139,2.556.215-.213,2.869-.319,4.3-.533,7.172" transform="translate(-132.555 -173.514)" fill="#fa682a"/>
      <path id="Path_186" data-name="Path 186" d="M237.677,272.243a3.229,3.229,0,0,1,.4-1.372,3.766,3.766,0,0,1,.9-1.088,4.111,4.111,0,0,1,1.264-.708,4.045,4.045,0,0,1,1.5-.223c2.35.083,3.526.1,5.877.071.011.959.016,1.438.026,2.4-2.395.026-3.593.012-5.987-.073a1.414,1.414,0,0,0-.513.073,1.324,1.324,0,0,0-.425.238,1.2,1.2,0,0,0-.295.368,1.1,1.1,0,0,0-.122.463,1.116,1.116,0,0,0,.08.476,1.156,1.156,0,0,0,.265.4,1.322,1.322,0,0,0,.41.272,1.43,1.43,0,0,0,.516.111c1.063.038,1.6.051,2.659.067a4.436,4.436,0,0,1,1.552.294,4.212,4.212,0,0,1,1.277.766,3.7,3.7,0,0,1,.874,1.136,3.2,3.2,0,0,1,.337,1.394,3.084,3.084,0,0,1-.3,1.4,3.541,3.541,0,0,1-.878,1.148,4.225,4.225,0,0,1-1.332.775,4.513,4.513,0,0,1-1.638.269c-2.49-.038-3.735-.084-6.221-.232.058-.957.086-1.436.144-2.393,2.444.146,3.667.191,6.115.228a1.53,1.53,0,0,0,.538-.085,1.381,1.381,0,0,0,.439-.251,1.18,1.18,0,0,0,.295-.378,1.1,1.1,0,0,0,.005-.935,1.2,1.2,0,0,0-.287-.382,1.379,1.379,0,0,0-.427-.259,1.51,1.51,0,0,0-.527-.1c-1.083-.016-1.625-.03-2.708-.068a4.2,4.2,0,0,1-1.562-.348,4.052,4.052,0,0,1-1.24-.838,3.56,3.56,0,0,1-.793-1.194,3.166,3.166,0,0,1-.224-1.416" transform="translate(-155.804 -176.243)" fill="#fa682a"/>
      <path id="Path_187" data-name="Path 187" d="M303.449,276.129c-1.116.134-1.674.2-2.791.308q-.6-5.959-1.2-11.918c1.022-.1,1.532-.158,2.552-.281.287,2.378.431,3.567.719,5.946,1.7-2.617,2.5-3.94,4.014-6.606,1.153-.183,1.729-.281,2.879-.491-1.234,2.28-1.885,3.413-3.253,5.661,2.079,2.49,3.161,3.716,5.406,6.122-1.258.229-1.888.337-3.15.537-1.523-1.72-2.265-2.591-3.707-4.35-.688,1.082-1.04,1.62-1.759,2.693l.287,2.38" transform="translate(-196.311 -172.466)" fill="#fa682a"/>
      <path id="Path_188" data-name="Path 188" d="M345.645,269.688c-1.091.3-1.637.441-2.732.716-.234-.93-.351-1.395-.585-2.325-2.152.541-3.232.789-5.4,1.241.2.939.295,1.408.491,2.347-1.1.229-1.65.338-2.753.545-.531-2.824-.8-4.236-1.329-7.06a4.347,4.347,0,0,1,.06-1.911,5.044,5.044,0,0,1,.8-1.71,5.448,5.448,0,0,1,1.4-1.339,5.8,5.8,0,0,1,3.923-.9,5.536,5.536,0,0,1,1.855.59,5.03,5.03,0,0,1,1.479,1.185,4.336,4.336,0,0,1,.892,1.693c.758,2.771,1.138,4.158,1.9,6.929m-3.9-3.925-.586-2.325a2.143,2.143,0,0,0-.43-.853,2.458,2.458,0,0,0-.735-.606,2.756,2.756,0,0,0-.938-.3,2.933,2.933,0,0,0-1.991.458,2.739,2.739,0,0,0-.71.681,2.45,2.45,0,0,0-.4.866,2.159,2.159,0,0,0-.013.954l.491,2.346c2.13-.444,3.192-.688,5.307-1.22" transform="translate(-218.467 -169.944)" fill="#fa682a"/>
      <path id="Path_189" data-name="Path 189" d="M365.767,252.845a3.2,3.2,0,0,1-.08-1.427,3.77,3.77,0,0,1,.494-1.33,4.165,4.165,0,0,1,2.321-1.809c2.264-.715,3.39-1.1,5.626-1.922l.828,2.25c-2.278.839-3.425,1.23-5.731,1.959a1.436,1.436,0,0,0-.464.241,1.333,1.333,0,0,0-.324.367,1.2,1.2,0,0,0-.157.446,1.134,1.134,0,0,0,.275.9,1.167,1.167,0,0,0,.384.285,1.328,1.328,0,0,0,.482.117,1.46,1.46,0,0,0,.528-.069c1.024-.324,1.536-.491,2.555-.836a4.548,4.548,0,0,1,1.578-.248,4.291,4.291,0,0,1,1.476.289,3.706,3.706,0,0,1,1.215.773,3.167,3.167,0,0,1,.789,1.2,3.057,3.057,0,0,1,.182,1.421,3.553,3.553,0,0,1-.453,1.38,4.283,4.283,0,0,1-1.011,1.181,4.624,4.624,0,0,1-1.471.808c-2.386.807-3.586,1.183-6,1.879l-.666-2.3c2.371-.684,3.551-1.054,5.895-1.847a1.559,1.559,0,0,0,.485-.262,1.388,1.388,0,0,0,.334-.385,1.177,1.177,0,0,0,.154-.456,1.048,1.048,0,0,0-.054-.476,1.066,1.066,0,0,0-.254-.407,1.206,1.206,0,0,0-.4-.262,1.4,1.4,0,0,0-.495-.1,1.535,1.535,0,0,0-.535.085c-1.038.351-1.558.521-2.6.85a4.26,4.26,0,0,1-1.6.2,4.093,4.093,0,0,1-1.46-.372,3.565,3.565,0,0,1-1.153-.858,3.152,3.152,0,0,1-.687-1.26" transform="translate(-239.695 -161.499)" fill="#fa682a"/>
      <path id="Path_190" data-name="Path 190" d="M402.3,246.689c-1.056.432-1.585.641-2.648,1.051l-4.3-11.179c.971-.374,1.455-.566,2.42-.96l1.815,4.438c2-.817,2.991-1.246,4.963-2.148l-1.995-4.36c.951-.435,1.425-.658,2.37-1.114l5.206,10.789c-1.033.5-1.552.743-2.593,1.219l-1.991-4.353c-2.007.918-3.018,1.356-5.052,2.188l1.811,4.431" transform="translate(-259.167 -152.36)" fill="#fa682a"/>
      <path id="Path_191" data-name="Path 191" d="M448.424,223.542c-.978.626-1.469.934-2.457,1.537-1.782-2.921-2.674-4.381-4.456-7.3a1.029,1.029,0,0,0-.336-.343,1.25,1.25,0,0,0-.447-.172,1.373,1.373,0,0,0-.5,0,1.573,1.573,0,0,0-.9.54,1.381,1.381,0,0,0-.239.437,1.2,1.2,0,0,0-.057.473,1.076,1.076,0,0,0,.146.456c1.722,2.957,2.583,4.436,4.3,7.393-1,.583-1.5.869-2.513,1.43-1.659-2.992-2.489-4.489-4.149-7.481a1.071,1.071,0,0,0-.317-.359,1.2,1.2,0,0,0-.435-.194,1.37,1.37,0,0,0-.5-.019,1.561,1.561,0,0,0-.921.5,1.366,1.366,0,0,0-.255.425,1.189,1.189,0,0,0-.074.469,1.071,1.071,0,0,0,.127.462c1.6,3.026,2.4,4.539,3.993,7.565-1.019.538-1.53.8-2.557,1.318-1.534-3.058-2.3-4.588-3.836-7.645a3.235,3.235,0,0,1-.349-1.391,3.7,3.7,0,0,1,.24-1.406,4.143,4.143,0,0,1,.764-1.263,4.352,4.352,0,0,1,1.224-.97,4.4,4.4,0,0,1,1.354-.472,4.075,4.075,0,0,1,1.407,0,4.1,4.1,0,0,1,.719-1.208,4.525,4.525,0,0,1,2.568-1.486,4.208,4.208,0,0,1,1.486-.018,3.718,3.718,0,0,1,1.34.507,3.2,3.2,0,0,1,1.019,1.01c1.843,2.883,2.765,4.324,4.607,7.207" transform="translate(-282.996 -140.786)" fill="#fa682a"/>
      <path id="Path_192" data-name="Path 192" d="M475.419,213.284c-.963.668-1.447,1-2.421,1.641l-6.609-9.99c.89-.59,1.332-.889,2.212-1.5l6.817,9.849" transform="translate(-305.741 -133.361)" fill="#fa682a"/>
      <path id="Path_193" data-name="Path 193" d="M487.15,199.241c-.943.708-1.418,1.056-2.372,1.741l-6.979-9.735c1.745-1.252,2.607-1.9,4.31-3.234a6.218,6.218,0,0,1,1.231-.757,6.139,6.139,0,0,1,1.311-.438,5.8,5.8,0,0,1,1.333-.126,5.177,5.177,0,0,1,1.289.189,4.67,4.67,0,0,1,1.17.508,4.074,4.074,0,0,1,.977.836,3.971,3.971,0,0,1,.641,1.034,4.383,4.383,0,0,1,.315,1.189,4.673,4.673,0,0,1-.028,1.288,5.46,5.46,0,0,1-.382,1.313c1.292.56,1.943.834,3.254,1.369-.969.815-1.458,1.216-2.44,2-1.007-.43-1.508-.648-2.5-1.094-1.018.811-1.531,1.209-2.564,1.992l1.437,1.918m-5.745-7.667,2.875,3.837c.911-.683,1.363-1.031,2.263-1.736a3.142,3.142,0,0,0,.751-.833,2.922,2.922,0,0,0,.384-.967,2.4,2.4,0,0,0-.009-.978,2.028,2.028,0,0,0-.417-.861,2.063,2.063,0,0,0-.76-.582,2.478,2.478,0,0,0-.945-.217,2.943,2.943,0,0,0-1.007.149,3.089,3.089,0,0,0-.954.515c-.867.68-1.3,1.014-2.182,1.673" transform="translate(-313.22 -122.385)" fill="#fa682a"/>
      <path id="Path_194" data-name="Path 194" d="M147.942,337.214h-1.917v-7.687h-2.889V327.6h7.687v1.923h-2.882Z" transform="translate(-93.833 -214.759)" fill="#303030"/>
      <path id="Path_195" data-name="Path 195" d="M182.288,337.214h-1.923V327.6h3.847a3.764,3.764,0,0,1,1.019.137,3.843,3.843,0,0,1,.915.389,3.917,3.917,0,0,1,.777.6,3.854,3.854,0,0,1,.6.781,3.905,3.905,0,0,1,.389.918,3.831,3.831,0,0,1,.013,1.984,3.958,3.958,0,0,1-.355.891,3.748,3.748,0,0,1-.566.777,3.845,3.845,0,0,1-.751.617l1.065,2.513h-2.044l-.838-1.937-2.151.013Zm0-7.687v3.847h1.923a1.853,1.853,0,0,0,.744-.151,1.926,1.926,0,0,0,1.022-1.025,1.926,1.926,0,0,0,0-1.495,1.931,1.931,0,0,0-1.022-1.026,1.858,1.858,0,0,0-.744-.151Z" transform="translate(-118.238 -214.759)" fill="#303030"/>
      <path id="Path_196" data-name="Path 196" d="M225.671,337.214h-1.923V335.29H219.9v1.923h-1.917V331.45a3.748,3.748,0,0,1,.3-1.5,3.916,3.916,0,0,1,.82-1.223,3.84,3.84,0,0,1,1.22-.824,3.869,3.869,0,0,1,3,0,3.858,3.858,0,0,1,2.047,2.047,3.748,3.748,0,0,1,.3,1.5Zm-1.923-3.84V331.45a1.876,1.876,0,0,0-.151-.747,1.922,1.922,0,0,0-1.025-1.025,1.926,1.926,0,0,0-1.495,0,1.92,1.92,0,0,0-1.025,1.025,1.876,1.876,0,0,0-.151.747v1.924Z" transform="translate(-142.899 -214.759)" fill="#303030"/>
      <path id="Path_197" data-name="Path 197" d="M262.171,327.6l-3.157,9.611h-1.923l-3.143-9.611h2.185l1.917,6.414,1.924-6.414Z" transform="translate(-166.475 -214.759)" fill="#303030"/>
      <path id="Path_198" data-name="Path 198" d="M299.029,337.214h-6.588V327.6h6.588v1.923h-4.665v1.923h3.157v1.924h-3.157v1.917h4.665Z" transform="translate(-191.709 -214.759)" fill="#303030"/>
      <path id="Path_199" data-name="Path 199" d="M334.161,337.214h-6.729V327.6h1.923v7.687h4.805Z" transform="translate(-214.647 -214.759)" fill="#303030"/>
      <path id="Path_200" data-name="Path 200" d="M359.623,330.485a2.771,2.771,0,0,1,.228-1.119,2.93,2.93,0,0,1,1.535-1.535,2.771,2.771,0,0,1,1.119-.228h4.41v1.923h-4.41a.951.951,0,0,0-.959.958.97.97,0,0,0,.074.379.938.938,0,0,0,.509.513.951.951,0,0,0,.375.074h1.923a2.835,2.835,0,0,1,1.123.225,2.868,2.868,0,0,1,1.535,1.535,2.914,2.914,0,0,1,0,2.242,2.9,2.9,0,0,1-1.535,1.535,2.8,2.8,0,0,1-1.123.228h-4.269V335.29h4.269a.958.958,0,1,0,0-1.917h-1.923a2.772,2.772,0,0,1-1.119-.228,2.922,2.922,0,0,1-1.535-1.538,2.8,2.8,0,0,1-.228-1.123" transform="translate(-235.75 -214.759)" fill="#303030"/>
    </g>
  </g>
</svg>
